<?xml version="1.0" encoding="utf-8"?>
<!-- Generator: Adobe Illustrator 23.1.1, SVG Export Plug-In . SVG Version: 6.00 Build 0)  -->
<svg version="1.1" id="Layer_1" xmlns="http://www.w3.org/2000/svg" xmlns:xlink="http://www.w3.org/1999/xlink" x="0px" y="0px"
	 viewBox="0 0 93.21 61.12" style="enable-background:new 0 0 93.21 61.12;" xml:space="preserve">
<style type="text/css">
	.st0{fill:#FFFFFF;}
	.st1{fill:#489BAA;}
	.st2{fill:#4A9AAB;}
	.st3{fill:none;stroke:#4A9CAB;stroke-width:4;stroke-miterlimit:10;}
	.st4{fill:none;stroke:#000000;stroke-width:2;stroke-miterlimit:10;}
	.st5{opacity:0.8;fill:#489BAA;}
	.st6{opacity:0.6;fill:#489BAA;}
	.st7{opacity:0.35;fill:#489BAA;}
	.st8{fill:none;stroke:#4A9CAB;stroke-width:3;stroke-miterlimit:10;}
	.st9{fill:#4A9CAB;}
</style>
<path class="st0" d="M163.3,285.28c2.36-3.67,4.46-6.93,6.7-10.42c-0.98-0.7-1.91-1.37-2.84-2.03c-11.5-8.11-16.14-22.7-11.5-36.14
	c4.48-12.98,17.57-21.61,31.51-20.77c15.41,0.93,27.56,12.78,29.23,28.51c1.57,14.83-8.36,29.16-22.95,33.06
	c-9.08,2.43-18.18,4.83-27.27,7.23C165.41,284.92,164.6,285.03,163.3,285.28z M202.77,233.21c-11.1,0-21.96,0-32.91,0
	c0,1.79,0,3.39,0,5.06c11.04,0,21.9,0,32.91,0C202.77,236.55,202.77,235.01,202.77,233.21z M169.81,248.46c11.13,0,21.99,0,32.9,0
	c0-1.79,0-3.39,0-5.02c-11.06,0-21.91,0-32.9,0C169.81,245.15,169.81,246.7,169.81,248.46z M187.38,253.96c-4.52,0-8.91,0-13.3,0
	c-4.83,0-4.83,0-4.28,4.79c0.02,0.14,0.18,0.27,0.26,0.39c5.78,0,11.55,0,17.32,0C187.38,257.37,187.38,255.82,187.38,253.96z"/>
<path class="st1" d="M-46.96,103.67c0,1.8,0,3.35,0,5.06c-11.01,0-21.87,0-32.91,0c0-1.66,0-3.27,0-5.06
	C-68.92,103.67-58.06,103.67-46.96,103.67z"/>
<path class="st1" d="M-79.92,118.92c0-1.76,0-3.3,0-5.02c10.99,0,21.84,0,32.9,0c0,1.63,0,3.23,0,5.02
	C-57.93,118.92-68.79,118.92-79.92,118.92z"/>
<path class="st1" d="M-79.92,128.92c0-1.76,0-3.3,0-5.02c5.83,0,11.58,0,17.44,0c0,1.63,0,3.23,0,5.02
	C-68.26,128.92-74.02,128.92-79.92,128.92z"/>
<path d="M14.8,275.79c1.56-2.39,2.95-4.51,4.2-6.44c-1.38-1.75-2.89-3.27-3.96-5.07c-4.09-6.89-1.44-15.92,5.75-19.99
	c6.78-3.84,15.85-1.3,19.69,5.52c4.65,8.26,0.87,18.4-8.16,21.26C26.65,272.87,20.83,274.19,14.8,275.79z M18.74,272.84
	c0.54-0.1,0.87-0.15,1.19-0.23c3.75-0.99,7.49-1.98,11.24-2.98c6.01-1.61,10.1-7.51,9.46-13.62c-0.69-6.48-5.69-11.36-12.05-11.75
	c-5.74-0.35-11.14,3.21-12.98,8.56c-1.91,5.54,0,11.55,4.74,14.89c0.38,0.27,0.77,0.55,1.17,0.84
	C20.58,269.98,19.72,271.33,18.74,272.84z"/>
<path d="M35.01,251.38c0,0.74,0,1.38,0,2.08c-4.54,0-9.01,0-13.56,0c0-0.68,0-1.35,0-2.08C25.96,251.38,30.43,251.38,35.01,251.38z"
	/>
<path d="M21.43,257.67c0-0.72,0-1.36,0-2.07c4.53,0,9,0,13.56,0c0,0.67,0,1.33,0,2.07C30.49,257.67,26.02,257.67,21.43,257.67z"/>
<path d="M28.67,259.94c0,0.77,0,1.4,0,2.14c-2.38,0-4.75,0-7.14,0c-0.03-0.05-0.1-0.1-0.11-0.16c-0.23-1.97-0.23-1.97,1.76-1.97
	C25,259.94,26.8,259.94,28.67,259.94z"/>
<path class="st2" d="M-31.1,98.66c1.43,3.15,2.39,6.58,2.77,10.24c1.57,14.83-8.36,29.16-22.95,33.06
	c-9.08,2.43-18.18,4.83-27.27,7.23c-0.78,0.21-1.59,0.31-2.88,0.56c2.36-3.67,4.46-6.93,6.7-10.42c-0.98-0.7-1.91-1.37-2.84-2.03
	c-11.5-8.11-16.14-22.7-11.5-36.14c4.48-12.98,17.57-21.61,31.51-20.77c2.48,0.15,4.88,0.59,7.16,1.27c0.31-1.38,0.8-2.69,1.47-3.9
	c-8.97-2.78-18.99-2.12-27.52,2.71c-17.45,9.89-23.89,31.79-13.96,48.52c2.58,4.35,6.25,8.05,9.6,12.29
	c-3.04,4.66-6.4,9.81-10.19,15.62c14.62-3.89,28.75-7.09,42.53-11.45c20.92-6.61,30.23-29.37,21.19-48.86
	C-28.44,97.46-29.72,98.16-31.1,98.66z"/>
<circle class="st3" cx="-37.51" cy="86.99" r="14.69"/>
<line class="st4" x1="-37.38" y1="77.63" x2="-37.38" y2="87.19"/>
<line class="st4" x1="-38.34" y1="86.21" x2="-31.95" y2="86.21"/>
<rect x="15.17" y="14.5" class="st1" width="36.63" height="7.3"/>
<rect x="15.17" y="24.05" class="st5" width="31.19" height="5.58"/>
<rect x="15.17" y="31.93" class="st6" width="26.47" height="3.65"/>
<rect x="15.17" y="37.65" class="st7" width="21.33" height="2.16"/>
<path class="st8" d="M81.84,47.28H29.49h-7.91L16.8,56.9c-0.39,0.78-1.57,0.49-1.55-0.38l0.21-9.24c-3.76,0-6.81-3.05-6.81-6.81
	V13.9c0-3.76,3.05-6.81,6.81-6.81h66.38c3.76,0,6.81,3.05,6.81,6.81v26.57C88.65,44.23,85.6,47.28,81.84,47.28z"/>
<polygon class="st9" points="72.09,31.1 65.3,23.27 78.88,23.27 "/>
</svg>
